# xmcd
#
# Track frame offsets:
# 150
# 53648
# 99168
# 141889
# 186927
# 257039
# 289526
#
# Disc length: 4699 seconds
#
#
# Revision: 0
# Processed by: cddbd v1.5.1PL0 Copyright (c) Steve Scherf et al.
# Submitted via: FreeRIP 2.80 
#
DISCID=5c125907
DTITLE=Agatha Christie - Hercule Poirots größte Trümpfe CD1
DYEAR=1900
DGENRE=Other
TTITLE0=01
TTITLE1=02
TTITLE2=03
TTITLE3=04
TTITLE4=05
TTITLE5=06
TTITLE6=07
EXTD=
EXTT0=
EXTT1=
EXTT2=
EXTT3=
EXTT4=
EXTT5=
EXTT6=
PLAYORDER=
